<?xml version="1.0" standalone="no"?>
<!DOCTYPE svg PUBLIC "-//W3C//DTD SVG 20010904//EN"
 "http://www.w3.org/TR/2001/REC-SVG-20010904/DTD/svg10.dtd">
<svg version="1.0" xmlns="http://www.w3.org/2000/svg"
 width="400.000000pt" height="400.000000pt" viewBox="0 0 400.000000 400.000000"
 preserveAspectRatio="xMidYMid meet">
<metadata>
Created by potrace 1.15, written by Peter Selinger 2001-2017
</metadata>
<g transform="translate(0.000000,400.000000) scale(0.100000,-0.100000)"
fill="#000000" stroke="none">
<path d="M0 3042 l0 -958 78 -155 c42 -85 107 -200 144 -254 63 -96 210 -265
229 -265 5 0 -22 62 -60 138 -86 170 -148 322 -194 472 -36 116 -69 252 -63
257 2 2 23 -22 46 -54 138 -184 275 -320 423 -415 43 -28 81 -58 86 -66 5 -8
39 -46 77 -84 81 -81 199 -163 338 -233 l99 -50 33 -87 c74 -192 112 -366 121
-562 7 -136 7 -136 73 -6 54 107 86 203 99 295 17 117 17 117 60 50 21 -33 68
-106 105 -163 36 -56 66 -107 66 -112 0 -5 -21 -8 -47 -7 -27 1 -75 1 -107 -1
-58 -2 -60 -3 -112 -58 -58 -60 -62 -66 -39 -58 17 7 115 -26 115 -38 0 -4 11
-8 24 -8 14 0 37 -5 51 -10 26 -10 27 -11 11 -35 -9 -13 -16 -27 -16 -30 0
-18 287 -317 444 -463 78 -71 94 -82 125 -82 l36 1 -40 21 c-88 46 -545 494
-545 534 0 7 9 19 20 27 16 11 32 11 107 -5 107 -21 315 -38 479 -38 85 0 125
-4 131 -12 11 -13 90 -215 144 -367 l31 -84 -38 -36 c-21 -20 -34 -29 -29 -21
8 13 7 13 -10 0 -17 -14 -16 -15 19 -18 21 -2 44 2 52 9 8 6 14 7 14 2 0 -5
11 -10 25 -11 22 -2 24 0 14 25 -5 14 -8 28 -6 30 2 2 73 13 158 24 85 12 159
26 164 31 6 6 -11 6 -45 1 -65 -9 -149 -9 -241 2 -54 6 -69 12 -77 29 -24 54
-152 377 -152 385 0 5 116 11 273 13 l273 3 42 27 c133 88 202 254 414 991 11
38 21 67 23 65 3 -2 16 -71 30 -154 15 -82 30 -153 35 -158 10 -10 32 61 56
174 21 106 30 437 14 570 -7 58 -16 137 -20 175 -4 39 -8 56 -9 39 -2 -57 -70
-307 -111 -414 -23 -57 -80 -183 -128 -280 -80 -163 -92 -180 -167 -256 -72
-74 -87 -84 -148 -103 -64 -19 -79 -20 -205 -11 -76 5 -245 14 -377 20 -262
10 -312 20 -460 83 -119 51 -301 167 -429 274 -22 18 -46 33 -53 33 -7 0 -13
5 -13 10 0 6 -3 9 -7 8 -5 -2 -8 0 -8 4 0 3 -11 18 -24 32 -19 20 -27 23 -33
14 -7 -10 -8 -9 -6 2 3 18 -40 86 -75 118 -13 13 -33 42 -43 65 -10 23 -26 53
-36 66 -17 23 -17 26 -3 34 9 5 35 11 58 14 44 5 107 30 107 43 0 12 -48 60
-61 60 -7 0 -9 3 -6 7 15 14 -30 44 -128 83 -125 50 -150 72 -159 139 -14 109
76 254 199 319 42 21 63 26 125 25 41 0 100 -7 130 -16 l55 -15 -29 23 c-40
32 -26 46 40 41 l55 -4 -21 23 -21 22 51 6 c37 5 90 -2 192 -23 77 -17 144
-28 148 -25 5 3 11 1 14 -4 5 -7 33 -14 116 -26 15 -2 258 -52 292 -59 28 -6
10 18 -44 59 -28 22 -46 41 -40 43 5 1 60 -4 121 -12 131 -19 144 -19 136 -6
-3 5 -71 53 -151 105 -79 52 -144 98 -144 101 0 3 15 4 33 1 17 -4 75 -9 127
-12 52 -4 120 -10 150 -14 130 -20 185 -20 185 -1 0 8 -6 14 -13 12 -8 -1 -11
1 -8 6 3 5 -8 22 -24 37 -17 16 -30 33 -30 38 0 9 57 5 152 -10 34 -5 36 -4
31 16 -3 11 -9 21 -14 21 -5 0 -9 5 -9 11 0 6 -16 37 -35 70 -19 32 -30 59
-24 59 5 0 38 -15 72 -32 81 -43 77 -41 77 -29 0 6 -28 44 -63 84 -35 39 -66
77 -70 84 -10 16 75 -18 212 -84 64 -32 120 -59 124 -61 5 -2 7 12 4 32 -4 34
-3 35 19 30 21 -5 24 -3 24 21 0 22 3 25 20 20 17 -5 20 -2 20 21 0 23 2 25
17 13 15 -13 16 -8 10 66 -8 98 -5 96 90 -88 l67 -130 33 39 c18 21 44 61 59
88 24 44 26 56 21 125 -6 91 4 180 17 143 4 -13 10 -22 12 -19 6 6 -30 106
-61 167 -65 129 -178 266 -245 299 l-25 12 25 -18 c14 -10 41 -33 60 -52 l35
-33 -53 37 c-45 32 -58 37 -90 32 -33 -6 -39 -3 -60 26 -27 38 -13 46 41 24
l35 -15 -22 34 -21 33 -1582 1 -1583 0 0 -958z m814 -157 c72 -25 132 -48 134
-50 3 -3 -19 -31 -49 -62 -30 -32 -70 -79 -89 -105 -49 -70 -47 -73 -100 85
-49 145 -56 177 -38 177 7 0 71 -20 142 -45z m361 -110 c168 -44 181 -50 129
-59 -131 -25 -272 -162 -318 -310 -10 -31 -23 -56 -29 -56 -6 0 -45 35 -88 78
-97 97 -112 137 -73 194 15 21 64 74 111 119 65 62 90 80 106 76 12 -2 85 -21
162 -42z"/>
<path d="M3578 3260 c5 -137 -8 -210 -48 -274 -32 -49 -55 -58 -65 -25 -4 11
-9 19 -11 17 -2 -2 10 -40 26 -84 59 -155 73 -227 80 -414 4 -96 8 -166 9
-155 1 11 11 -9 22 -45 21 -69 159 -616 180 -713 7 -31 14 -55 16 -53 2 2 17
75 34 162 17 87 34 162 38 166 4 4 34 -15 66 -42 33 -27 63 -50 68 -50 4 0 7
143 7 318 l0 318 -36 88 c-19 49 -33 91 -30 93 3 3 19 1 35 -5 l31 -11 0 124
c0 70 -4 126 -10 130 -37 23 -398 502 -409 543 -4 15 -5 -25 -3 -88z"/>
<path d="M1283 2618 c-41 -11 -110 -89 -119 -135 -8 -41 16 -110 49 -141 39
-37 114 -64 156 -57 110 18 165 111 130 216 -28 83 -131 139 -216 117z"/>
<path d="M2135 2368 c3 -13 8 -34 10 -48 14 -96 18 -117 26 -133 6 -10 14 -15
20 -12 5 4 9 0 9 -8 0 -16 28 -44 50 -49 8 -2 18 -7 22 -13 5 -6 8 -5 8 3 0 6
5 12 11 12 5 0 7 -5 3 -11 -4 -7 1 -10 12 -7 11 2 19 8 19 15 0 6 3 15 7 19 5
4 -13 30 -40 59 -26 28 -69 84 -97 123 -49 72 -73 92 -60 50z"/>
<path d="M2802 1870 c-94 -31 -242 -152 -242 -197 0 -36 28 -28 105 30 39 29
99 73 135 98 36 26 73 55 82 66 16 18 16 19 -5 20 -12 1 -46 -7 -75 -17z"/>
<path d="M3806 1410 c2 -19 12 -120 23 -225 11 -104 24 -235 29 -290 9 -96 9
-97 10 -30 0 39 -5 130 -11 203 -7 72 -10 132 -7 132 8 0 84 -91 115 -137 15
-24 29 -43 31 -43 2 0 4 70 4 155 l0 155 -84 0 -83 0 1 28 c1 27 2 27 86 33
61 4 70 6 34 7 -94 4 -143 14 -147 31 -3 9 -3 0 -1 -19z"/>
<path d="M3637 988 c-14 -46 -66 -221 -117 -389 l-91 -306 17 -74 c16 -74 43
-127 31 -62 l-6 33 42 -43 c40 -41 47 -44 142 -61 55 -10 103 -20 107 -23 5
-2 1 -17 -7 -34 l-16 -29 131 0 130 0 0 258 0 257 -72 -147 c-87 -179 -90
-181 -248 -186 l-106 -4 -47 104 c-26 57 -47 109 -47 116 0 13 9 44 130 456
33 115 59 211 56 213 -2 3 -16 -33 -29 -79z"/>
<path d="M776 209 c-10 -17 -28 -39 -40 -49 -11 -10 -43 -36 -69 -59 l-48 -41
-310 0 -309 0 0 -25 c0 -29 -36 -26 328 -27 223 0 245 1 265 18 12 11 47 39
77 64 30 25 57 48 58 53 2 4 11 7 20 7 20 0 141 -65 218 -116 30 -20 59 -34
65 -32 14 5 -122 94 -204 134 -61 30 -65 37 -41 72 9 13 14 25 12 27 -2 3 -12
-9 -22 -26z"/>
</g>
</svg>
